<?xml version="1.0" encoding="utf-8"?>
<!-- Generator: Adobe Illustrator 22.0.0, SVG Export Plug-In . SVG Version: 6.00 Build 0)  -->
<svg version="1.1" id="Layer_1" xmlns="http://www.w3.org/2000/svg" xmlns:xlink="http://www.w3.org/1999/xlink" x="0px" y="0px"
	 viewBox="0 0 20 20" style="enable-background:new 0 0 20 20;" xml:space="preserve">
<style type="text/css">
	.st0{fill:none;stroke:#0D263C;stroke-width:1.5;stroke-linecap:round;stroke-linejoin:round;}
</style>
<path class="st0" d="M2.3,12c0,3.2,1.4,5.9,4.3,5.9h6.8c3,0,4.3-2.7,4.3-5.9"/>
<path class="st0" d="M18.8,11.9H1.2"/>
<path class="st0" d="M16.3,19l-0.6-1.1"/>
<path class="st0" d="M3.7,19l0.6-1.1"/>
<path class="st0" d="M6.9,3.2C6.9,2,5.8,1,4.6,1C3.4,1,2.4,2,2.4,3.2v8"/>
<path class="st0" d="M9.7,4.6c-0.4-1-1.3-1.6-2-1.3L6.3,3.7C5.6,4,5.3,5.1,5.6,6.1"/>
<path class="st0" d="M5,6.4l5.2-1.9 M12.9,16.8c2,0,3.1-1.5,3.4-3.4"/>
</svg>
