<?xml version="1.0" encoding="utf-8"?>
<!-- Generator: Adobe Illustrator 22.0.0, SVG Export Plug-In . SVG Version: 6.00 Build 0)  -->
<svg version="1.1" id="Layer_1" xmlns="http://www.w3.org/2000/svg" xmlns:xlink="http://www.w3.org/1999/xlink" x="0px" y="0px"
	 viewBox="0 0 22 20" style="enable-background:new 0 0 22 20;" xml:space="preserve">
<style type="text/css">
	.st0{fill:none;stroke:#0D263C;stroke-width:1.5;stroke-linecap:round;stroke-linejoin:round;}
</style>
<path class="st0" d="M20.7,14.7V19h-2.9v-2.2H4.2V19H1.3v-4.3"/>
<path class="st0" d="M4.3,1h13.4"/>
<path class="st0" d="M17.7,1C18.4,1,19,1.6,19,2.3"/>
<path class="st0" d="M19,2.3v5.6"/>
<path class="st0" d="M17.3,7.7V6.8c0-0.8-0.7-1.4-1.4-1.4h-3.3c-0.8,0-1.4,0.7-1.4,1.4v0.6"/>
<path class="st0" d="M10.9,7.4V6.8c0-0.8-0.7-1.4-1.4-1.4H6.2C5.4,5.4,4.7,6,4.7,6.8v0.8"/>
<path class="st0" d="M3,7.9V2.3"/>
<path class="st0" d="M3,2.3C3,1.6,3.6,1,4.3,1"/>
<path class="st0" d="M3,8.3c5.1-0.8,12.9-0.7,16.1,0l1.7,6.1H1.3L3,8.3z"/>
</svg>
